<?xml version="1.0" standalone="no"?>
<!DOCTYPE svg PUBLIC "-//W3C//DTD SVG 20010904//EN" "http://www.w3.org/TR/2001/REC-SVG-20010904/DTD/svg10.dtd">
<!-- Created using Karbon, part of Calligra: http://www.calligra.org/karbon -->
<svg xmlns="http://www.w3.org/2000/svg" xmlns:xlink="http://www.w3.org/1999/xlink" width="325.134pt" height="395.717pt">
<defs/>
<g id="layer0">
  <path id="path1995" transform="translate(0.621917, 0.622358)" fill="#000000" d="M180.21 493.8C150.964 491.05 113.75 478.6 94.848 465.241C86.6631 459.456 73.3839 446.743 65.7857 437.417C54.8547 424 46.7099 411.754 46.7099 408.736C46.7099 406.616 46.074 405.625 44.2733 404.941C40.1486 403.373 27.0176 382.282 18.2795 363.19C13.6508 353.077 7.70986 336.787 7.70986 334.209C7.70986 333.476 8.8843 331.016 10.3197 328.743L12.9296 324.608L7.84889 320.012C2.90442 315.54 2.74191 315.215 1.78934 307.917C-2.26023 276.888 0.559464 248.465 10.2928 222.2L14.0788 211.984L18.3943 211.337C20.7679 210.981 22.7099 210.498 22.7099 210.263C22.7099 210.029 21.8099 208.073 20.7099 205.917C19.6099 203.76 18.7099 201.251 18.7099 200.341C18.7099 194.786 38.9888 171.38 52.8547 160.929C61.6217 154.322 77.507 144.308 80.0638 143.776C81.166 143.547 83.3649 139.791 86.1282 133.417C94.885 113.218 104.173 99.5944 120.341 83.2361L131.473 71.9737L131.841 59.7316L132.21 47.4895L121.567 41.453C110.947 35.4304 110.922 35.4066 110.317 31.0271C109.46 24.8303 109.561 9.91678 110.46 9.91589C110.872 9.91548 126.06 7.68424 144.21 4.95757L177.21 0L223.568 4.27621C265.94 8.1847 270.068 8.72554 271.568 10.5657C272.471 11.673 279.285 17.4558 286.71 23.4164C294.135 29.377 300.567 34.5579 301.004 34.9295C301.441 35.3012 302.371 42.552 303.071 51.0424L304.343 66.4795L326.877 88.948C339.271 101.306 353.333 116.367 358.126 122.417C382.666 153.392 396.841 181.461 402.567 210.417C408.973 242.808 407.506 282.529 398.589 318.121C390.224 351.51 384 367.158 365.636 400.963L356.648 417.509L349.429 421.079C345.459 423.043 340.735 424.974 338.933 425.369C336.276 425.951 334.683 427.538 330.519 433.752C318.873 451.13 302.855 467.77 290.986 474.822C276.805 483.246 253.285 489.331 221.043 492.916C202.196 495.012 194.8 495.172 180.21 493.8ZM172.877 468.223L171.029 459.211L192.619 458.529C218.96 457.697 221.71 457.345 221.71 454.807C221.71 452.998 220.503 452.917 193.71 452.917C178.31 452.917 165.71 453.102 165.71 453.329C165.71 456.085 168.988 469.568 170.273 472.098C172.233 475.955 173.841 478.119 174.36 477.6C174.561 477.399 173.894 473.179 172.877 468.223ZM124.675 462.352C121.282 455.991 118.721 450.572 118.983 450.31C119.369 449.924 130.998 452.26 144.502 455.437C146.711 455.956 146.738 455.889 145.223 453.577C143.953 451.639 141.979 450.854 134.931 449.488C130.134 448.557 122.907 446.889 118.871 445.779C114.834 444.67 111.316 443.977 111.053 444.24C110.447 444.846 114.974 453.835 119.298 460.61C122.446 465.543 129.429 473.917 130.393 473.917C130.641 473.917 128.068 468.712 124.675 462.352ZM109.601 464.167C108.352 462.104 104.579 456.142 101.218 450.917C97.8567 445.692 94.0483 439.529 92.7546 437.221C90.6805 433.521 88.8765 432.24 77.4843 426.376C70.3792 422.719 64.4046 419.889 64.2075 420.086C64.0103 420.283 66.8552 424.695 70.5295 429.89C79.5146 442.595 93.3382 456.523 103.21 462.816C107.61 465.621 111.359 467.916 111.541 467.917C111.724 467.917 110.851 466.229 109.601 464.167ZM240.787 459.872C241.48 455.997 242.409 452.603 242.852 452.329C243.295 452.055 249.594 450.05 256.85 447.875C264.105 445.699 270.274 443.686 270.559 443.401C274.46 439.499 248.06 443.129 241.601 447.382C237.805 449.881 236.71 452.698 236.71 459.96C236.71 469.147 239.139 469.094 240.787 459.872ZM165.666 436.667C165.642 435.979 165.261 433.547 164.818 431.261L164.013 427.106L174.817 422.965C188.841 417.589 195.808 412.825 206.367 401.387C213.518 393.641 215.609 391.956 218.601 391.523C231.402 389.672 230.71 389.929 230.71 387.032L230.71 384.323L218.96 385.562C206.282 386.898 171.38 387.187 157.903 386.067C149.895 385.402 149.617 385.45 150.152 387.397C150.458 388.508 152.498 397.967 154.686 408.417C160.001 433.799 161.266 437.917 163.749 437.917C164.827 437.917 165.69 437.354 165.666 436.667ZM139.685 430.345C138.569 427.1 136.07 417.689 134.133 409.431C132.196 401.173 129.947 392.128 129.137 389.331L127.663 384.244L115.437 381.419C108.712 379.866 96.9276 376.886 89.2494 374.799C81.5711 372.712 75.2026 371.097 75.0972 371.21C74.6505 371.691 88.7294 406.054 92.1848 412.917C97.9153 424.298 99.0147 425.546 103.928 426.245C106.283 426.58 115.635 429.072 124.71 431.783C133.785 434.494 141.324 436.606 141.462 436.478C141.601 436.35 140.802 433.59 139.685 430.345ZM252.599 408.962L258.216 385.508L280.944 378.962C301.309 373.097 306.178 371.052 304.284 369.157C303.664 368.537 252.444 379.758 251.612 380.696C251.26 381.092 249.311 391.767 247.282 404.417C245.252 417.067 243.333 428.693 243.018 430.254C242.509 432.766 242.703 433.052 244.713 432.754C246.805 432.443 247.421 430.586 252.599 408.962ZM79.5432 414.142C79.3599 413.716 76.4731 407.978 73.1283 401.392C69.7834 394.806 64.406 383.463 61.1785 376.185L55.3104 362.954L49.2601 359.278C39.2871 353.217 24.4283 342.887 20.9599 339.602C19.1724 337.909 17.7099 336.806 17.7099 337.15C17.7099 339.086 28.2837 360.051 37.9591 377.297L49.1122 397.178L56.4584 402.297C63.4037 407.137 77.2332 414.852 79.0432 414.896C79.5015 414.907 79.7265 414.568 79.5432 414.142ZM326.532 400.742C347.007 370.553 360.94 307.537 356.785 263.917C353.422 228.611 344.169 204.125 321.292 169.997C300.962 139.666 293.222 131.05 267.21 109.788C260.06 103.943 252.503 97.6437 250.416 95.789L246.622 92.4166L245.283 73.4529L243.943 54.4893L230.577 41.3982L217.21 28.3072L202.71 26.6144C181.464 24.1342 134.255 19.1898 126.56 18.639L119.911 18.163L119.31 21.1648C117.73 29.0678 118.288 30.4401 125.047 35.2634C129.83 38.6759 132.468 39.8632 135.797 40.1012L140.21 40.4166L139.952 53.14L139.693 65.8635L145.893 62.2298C149.303 60.2313 155.462 57.4148 159.58 55.971C163.698 54.5272 167.222 52.8812 167.411 52.3131C167.6 51.7451 165.258 49.5605 162.206 47.4584C159.154 45.3563 156.882 43.4113 157.157 43.136C157.432 42.8608 168.63 43.9193 182.042 45.4883L206.426 48.3411L220.755 61.9592L235.084 75.5773L235.744 86.7832C236.541 100.303 235.025 98.3093 259.663 118.227C289.103 142.025 294.389 147.681 311.445 173.628C335.454 210.151 345.848 235.873 348.759 265.965C350.115 279.99 349.607 290.884 346.643 311.291C341.582 346.142 337.357 361.62 320.133 408.417C319.244 410.832 321.625 407.977 326.532 400.742ZM211.21 364.928C218.91 364.394 227.273 363.691 229.794 363.366L234.379 362.775L235.626 349.596C236.312 342.347 237.125 323.193 237.433 307.032L237.993 277.647L233.601 278.301C214.979 281.076 182.067 281.838 164.21 279.909C159.26 279.374 152.113 278.637 148.328 278.27L141.446 277.605L141.969 305.511C142.4 328.507 144.861 362.3 146.208 363.73C146.371 363.902 151.162 364.401 156.857 364.838C171.993 365.999 195.213 366.038 211.21 364.928ZM170.471 355.568C166.764 354.305 163.492 353.032 163.2 352.74C162.908 352.448 163.152 349.952 163.744 347.193C164.656 342.939 164.44 340.299 162.317 329.797C160.94 322.988 159.51 315.167 159.139 312.417C158.313 306.304 156.445 301.569 153.157 297.258L150.665 293.992L152.938 292.503C154.187 291.685 158.305 289.85 162.088 288.426C168.57 285.986 169.072 285.935 170.832 287.527C173.661 290.087 174.698 295.331 174.704 307.108C174.707 312.988 175.147 318.069 175.681 318.399C177.524 319.538 186.886 311.387 194.305 302.182C198.399 297.104 203.148 292.225 204.858 291.34C211.826 287.737 221.966 290.452 227.208 297.325L229.822 300.752L226.516 305.189C224.698 307.63 222.74 310.432 222.167 311.417C221.305 312.896 220.75 313.009 218.982 312.062C217.805 311.432 213.847 310.917 210.188 310.917L203.534 310.917L197.934 316.298L192.333 321.68L195.163 325.048C199.88 330.664 210.777 339.933 218.647 345.024C223.392 348.094 225.564 350.028 224.647 350.368C221.581 351.504 203.293 356.83 203.149 356.629C203.065 356.512 198.842 350.454 193.764 343.167C188.687 335.879 184.206 329.917 183.808 329.917C183.41 329.917 181.825 331.231 180.285 332.838L177.487 335.759L179.598 345.622C180.76 351.046 181.71 356.032 181.71 356.701C181.71 358.511 178.014 358.139 170.471 355.568ZM121.139 359.032C121.439 358.545 120.936 352.808 120.02 346.282C118.783 337.466 118.337 326.632 118.283 304.123L118.21 273.83L115.71 273.241C94.7978 268.317 79.5266 263.391 69.6325 258.377C65.8681 256.47 64.2332 256.07 63.7035 256.927C61.6737 260.211 60.2144 277.883 60.2773 298.417C60.3456 320.69 61.7221 331.985 65.8795 344.384L67.2099 348.352L80.7099 352.647C88.1349 355.008 97.1349 357.574 100.71 358.347C108.104 359.947 120.32 360.357 121.139 359.032ZM261.096 359.101C261.373 358.652 262.04 353.983 262.578 348.725L263.556 339.166L268.603 334.119C279.246 323.476 287.982 306.846 294.976 283.917L299.399 269.417L308.554 264.973C316.797 260.973 317.71 260.256 317.71 257.781L317.71 255.033L309.96 258.907C305.697 261.038 296.585 264.422 289.71 266.426C282.835 268.43 273.497 271.175 268.96 272.526L260.71 274.981L260.71 289.549C260.71 305.676 259.168 332.63 257.299 349.167L256.084 359.917L258.338 359.917C259.578 359.917 260.819 359.55 261.096 359.101ZM46.3047 335.167C45.0443 331.081 42.7437 313.6 42.124 303.4C41.3405 290.503 42.9786 269.17 45.7846 255.727L47.7281 246.417L45.0448 244.417C36.9857 238.41 24.6804 227.684 22.77 225.001C21.562 223.305 20.191 221.917 19.7233 221.917C19.2556 221.917 17.939 224.729 16.7975 228.167C10.5689 246.923 7.84844 272.511 9.66791 295.225C10.2932 303.03 11.0266 310.166 11.2978 311.082C12.3329 314.578 34.5704 332.21 42.0457 335.462C46.2546 337.293 46.9459 337.245 46.3047 335.167ZM335.497 333.167C338.543 330.514 341.043 309.202 341.042 285.917C341.04 267.566 339.263 248.917 337.517 248.917C337.017 248.917 335.908 250.591 335.053 252.637C333.468 256.431 333.505 257.73 335.65 273.417C337.563 287.41 336.292 313.126 332.82 330.667C331.9 335.315 332.446 335.825 335.497 333.167ZM216.21 258.912C223.91 258.364 231.737 257.658 233.602 257.344L236.995 256.773L236.315 247.103C235.149 230.508 231.463 210.917 225.381 188.986L223.043 180.555L216.627 180.986C213.097 181.223 198.845 181.382 184.954 181.339L159.698 181.262L156.295 191.839C151.967 205.291 148.351 221.621 145.759 239.417C143.126 257.498 143.074 256.712 146.96 257.41C158.917 259.559 195.861 260.36 216.21 258.912ZM275.71 250.421C291.272 247.15 296.683 245.473 303.904 241.685C313.482 236.66 313.374 237.076 308.658 223.321C301.72 203.09 292.671 185.71 280.972 170.151L275.509 162.885L270.148 165.952C267.2 167.639 260.157 170.776 254.499 172.923C248.453 175.217 244.255 177.361 244.319 178.122C244.38 178.834 246.277 186.617 248.536 195.417C253.996 216.69 257.286 232.309 258.807 244.179C259.84 252.237 260.334 253.863 261.634 253.494C262.501 253.249 268.835 251.866 275.71 250.421ZM122.818 241.344C125.21 225.738 129.356 207.767 132.177 200.779C132.709 199.459 130.851 199.821 122.618 202.64C108.779 207.378 100.326 207.502 91.4367 203.096C88.0602 201.423 85.01 200.231 84.6584 200.448C82.6402 201.696 68.7099 233.484 68.7099 236.842C68.7099 240.012 114.299 253.881 120.177 252.499C120.708 252.374 121.897 247.355 122.818 241.344ZM56.1043 222.399C57.666 218.814 62.9257 209.588 67.7924 201.896L76.641 187.911L75.6364 182.477C74.6947 177.383 75.5448 165.426 77.2874 159.252C77.7306 157.682 77.3193 156.778 75.7896 155.959C73.9393 154.969 72.6535 155.633 65.2987 161.376C54.9004 169.496 38.6274 186.422 32.2601 195.74L27.4679 202.754L32.069 208.734C36.2912 214.221 51.295 228.917 52.6748 228.917C52.9993 228.917 54.5426 225.984 56.1043 222.399ZM331.118 228.065C331.737 227.064 323.533 210.553 320.611 206.917C318.916 204.808 318.982 205.199 321.031 209.417C322.367 212.167 324.505 217.679 325.782 221.667C327.885 228.234 329.682 230.389 331.118 228.065ZM123.918 194.697C135.305 190.028 144.751 183.653 153.569 174.686C171.155 156.803 184.375 133.648 189.937 110.985C191.489 104.66 192.062 99.0114 192.125 89.4135C192.2 77.8993 191.973 76.0354 190.141 73.1351C188.134 69.9597 188.019 69.9171 186.369 71.7403C184.883 73.3828 184.813 74.301 185.82 78.9931C187.413 86.4204 186.358 103.649 183.753 112.756C179.551 127.446 169.069 145.546 156.316 160.132C138.726 180.253 125.095 188.513 107.71 189.59C98.8172 190.14 94.9865 188.355 91.87 182.206C86.2215 171.061 88.917 156.372 101.19 131.417C113.749 105.881 136.278 81.1198 155.353 71.8893C158.731 70.2543 162.368 68.9166 163.435 68.9166C164.8 68.9166 165.711 67.821 166.51 65.2175C167.134 63.183 167.482 61.3557 167.284 61.157C166.349 60.2223 151.256 67.0943 144.947 71.3272C131.737 80.1901 115.314 97.0883 105.013 112.417C96.7543 124.707 88.2955 144.177 84.7008 159.171C82.5461 168.158 82.0895 181.141 83.7712 185.602C85.267 189.569 90.5025 194.822 95.2099 197.078C101.622 200.151 112.894 199.216 123.918 194.697ZM356.217 183.565C362.052 180.848 366.986 175.641 368.728 170.361C369.463 168.134 369.761 163.876 369.468 159.781C369.065 154.144 368.14 151.286 364.254 143.672C361.656 138.582 357.104 131.042 354.138 126.917C347.199 117.267 325.836 96.0944 313.968 87.1036L304.726 80.1023L299.468 81.4614C296.576 82.2088 287.46 83.9706 279.21 85.3764C270.96 86.7822 262.024 88.5043 259.353 89.2034L254.495 90.4745L273.353 106.12C306.004 133.209 315.089 143.306 332.06 171.367L340.86 185.917L346.035 185.907C349.34 185.901 353.02 185.054 356.217 183.565ZM115.03 181.421C118.188 180.599 122.67 178.948 124.99 177.752L129.21 175.578L117.941 172.734L106.672 169.89L103.441 173.536C98.5498 179.056 98.16 180.041 100.261 181.578C102.657 183.33 107.918 183.274 115.03 181.421ZM209.314 166.667C207.893 161.589 206.435 150.074 207.02 148.551C207.97 146.074 211.505 146.592 214.309 149.619C215.687 151.105 218.478 155.398 220.512 159.16L224.21 165.999L229.16 165.337C234.778 164.584 241.918 162.665 241.882 161.917C241.869 161.642 239.981 157.506 237.688 152.726C235.394 147.947 233.813 143.559 234.173 142.976C235.688 140.525 239.193 142.357 246.693 149.522L254.654 157.128L259.682 153.437C262.447 151.407 264.71 149.414 264.71 149.008C264.71 148.602 261.672 146.181 257.96 143.628C254.247 141.075 246.935 135.118 241.71 130.389C234.627 123.98 231.701 121.926 230.21 122.319C218.006 125.532 205.84 128.008 199.701 128.528L192.191 129.164L187.82 138.143C185.415 143.082 180.381 151.777 176.632 157.465L169.816 167.807L174.013 168.187C176.321 168.396 185.35 168.646 194.076 168.742L209.943 168.917ZM149.928 156.667C159.942 145.32 169.492 130.991 168.312 129.081C168.008 128.589 165.979 127.948 163.804 127.656C161.629 127.364 155.538 125.903 150.269 124.408L140.689 121.69L132.156 129.553C127.463 133.878 120.75 139.957 117.239 143.061L110.856 148.705L113.033 150.679C114.23 151.764 116.478 153.458 118.028 154.444L120.847 156.237L128.011 148.958C135.145 141.71 138.083 139.751 140.46 140.655C142.484 141.425 141.961 143.347 137.223 152.555C134.755 157.351 132.842 161.343 132.973 161.426C133.753 161.923 140.483 163.729 141.87 163.815C142.783 163.871 146.409 160.654 149.928 156.667ZM119.059 128.218C122.275 125.577 126.203 121.79 127.786 119.801C130.64 116.216 130.648 116.171 128.687 114.396C127.438 113.265 126.695 111.283 126.669 109.012L126.629 105.417L123.554 108.917C117.465 115.848 106.71 133.548 106.71 136.637C106.71 137.476 113.03 133.167 119.059 128.218ZM175.819 114.167C177.303 110.316 179.611 97.9169 178.844 97.9154C178.495 97.9147 170.338 96.8169 160.717 95.4759C143.398 93.0619 143.182 93.0564 138.967 94.921L134.71 96.8042L134.71 103.204L134.71 109.603L142.46 111.693C150.52 113.867 159.7 115.668 165.71 116.255C174.399 117.103 174.712 117.039 175.819 114.167ZM208.586 115.435C214.011 114.62 219.071 113.758 219.83 113.519C220.589 113.279 222.475 112.806 224.02 112.466L226.831 111.848L224.597 108.132C223.368 106.089 222.3 104.314 222.224 104.188C221.989 103.8 199.5 100.788 199.25 101.112C199.12 101.28 198.336 104.904 197.508 109.167C196.251 115.632 196.227 116.917 197.362 116.917C198.111 116.917 203.161 116.25 208.586 115.435ZM219.048 87.6719L218.887 79.4263L210.048 75.7333C204.582 73.4492 200.851 72.3951 200.268 72.9703C199.356 73.871 199.398 91.9379 200.314 92.8543C200.801 93.3411 213.886 95.6296 217.21 95.8093C219.069 95.9098 219.198 95.3371 219.048 87.6719ZM162.236 83.9663C161.396 82.3436 160.71 80.3186 160.71 79.4663C160.71 77.1409 158.773 77.609 152.894 81.3554L147.578 84.7431L152.894 85.7111C155.818 86.2434 159.459 86.7325 160.986 86.7978C163.743 86.9159 163.751 86.8976 162.236 83.9663ZM178.822 69.9304C181.774 64.6778 187.762 60.481 190.888 61.4732C192.161 61.8772 193.752 62.9297 194.424 63.8121C195.457 65.1687 195.651 64.8499 195.678 61.7484C195.722 56.7141 194.935 55.0844 191.638 53.3796C185.702 50.3098 178.604 52.1635 175.884 57.4937C174.114 60.9646 173.374 69.4202 174.635 71.7764C175.265 72.9535 175.961 73.9166 176.181 73.9166C176.402 73.9166 177.59 72.1228 178.822 69.9304ZM273.125 43.0405L293.041 37.2101L280.754 27.0345C272.931 20.5556 267.876 17.0367 266.839 17.3483C265.943 17.6176 257.335 19.6695 247.71 21.9081C238.085 24.1468 229.385 26.3142 228.376 26.7246C226.847 27.3466 228.471 29.2553 238.131 38.1937C244.505 44.0913 250.505 48.9063 251.465 48.8938C252.425 48.8812 262.172 46.2473 273.125 43.0405Z"/>
  <rect id="rect2906" transform="translate(133.358, 363.112)" fill="none" width="379.15764000000pt" height="433.88140000000pt"/>
 </g>
</svg>
